<svg id="Ebene_1" xmlns="http://www.w3.org/2000/svg" width="334" height="76" viewBox="0 0 334 76"><style>.st0{fill:#ec5a4f}.st1{font-family:&amp;apos;FuturaStd-Light&amp;apos;}.st2{font-size:15.1543px}.st3{fill:#e3000b}.st4{font-size:21.3277px}.st5{fill-rule:evenodd;clip-rule:evenodd;fill:#ec5a4f}</style><path class="st0" d="M325.8 41.1C209.7 59 84.9 54.3 24.8 48c-29.5-3.1-24.6-7.5-2.5-5.7 22.2 1.7 164 17.8 303.5-1.2z"/><text transform="translate(100.376 70.63)"><tspan x="0" y="0" class="st1 st2">Cosmetics</tspan><tspan x="68.5" y="0" class="st3 st1 st2"> </tspan><tspan x="72.1" y="0" class="st0 st1 st2">|</tspan><tspan x="76.2" y="0" class="st3 st1 st2"> </tspan><tspan x="79.8" y="0" class="st1 st2">Schulung</tspan><tspan x="143.1" y="0" class="st3 st1 st2"> </tspan><tspan x="146.7" y="0" class="st0 st1 st2">|</tspan><tspan x="150.7" y="0" class="st3 st1 st2"> </tspan><tspan x="154.4" y="0" class="st1 st2">Vertrieb</tspan></text><text transform="translate(21.938 40.246)" class="st0 st1 st4">Eveline Glanzmann</text><path class="st5" d="M313.4 16.7c-1.9-.4-3.6-1.2-5.5-1.5-4-.8-7.9-.8-11.6.9-.7.3-1.3.8-2 1.2-.7.4-.3.8.1 1.1 2.9 2.5 6.1 4.6 9.9 5.2 3.3.5 6.8.8 9.8-1.2.6-.4 1.1-.9 1.6-1.5-.2 1.4-1.1 2.4-2.3 3.1-3.2 2-6.6 1.8-10.1 1.2-3.7-.6-7.2-2.1-10.2-4.4-1.1-.8-2.1-1.8-3.1-2.7-.6-.5-.5-1 .1-1.4 3.1-2.6 6.6-4.3 10.7-4.4 3.6-.1 6.9 1 10.1 2.8.8.5 1.6 1 2.5 1.6z"/><path class="st5" d="M316.4 22.5c.7 3.8-.1 7.1-1.7 10.3-2.1 4.4-5.7 6.2-10.4 6.3-.4 0-.9.2-.9-.6-.1-3.6-.3-7.2.6-10.7.1-.5.3-1 .6-1.4.5-.8 2-.4 2-.4s-1.2 6.2-1.3 8.9c0 1.5.1 1.6 1.6 1.1 4.6-1.5 7.1-5 8.5-9.4.5-1.1.7-2.5 1-4.1zM316.4 19.6c3.8-.2 5.6-2.9 7-5.9 1.1-2.3 1.3-4.8 1.1-7.4-4.3.6-7.3 4.2-9.3 11-1.1-1.8-1.7-2.7-4.4-4.1-.8-.4-2.2-.5-3-.3.5-.5 1.6-.7 1.8-.7 1.7.1 2.8.5 4.1 1.6.4.3.9 1.1 1.3 1.7.7-2.7 1.3-5.1 2.8-7.2 1.9-2.5 4.5-3.9 7.5-4.5.6-.1 1 .2 1 .8.5 4.9-1.1 9.3-4.1 13.1-1 1.3-2.5 1.9-4.1 2.2-.5.2-1.2.3-1.7-.3z"/><path class="st5" d="M317.4 21.1c2.2 1.1 4.5 2 7 1.8 1.6-.1 3.1-.4 4.3-1.5.5-.4.7-.6 0-1.1-1.4-1.1-2.8-1.9-4.5-2.6-.3-.1-1.1-.2-.8-.9.2-.5.5-1 1.3-.7 1.9.8 3.5 1.9 5 3.2l.7.7c1.5 1.5 1.4 1.7-.4 3-3.3 2.4-6.6 2.1-10 .2-.9-.5-1.8-1.2-2.6-2.1zM314.4 21.1c-.1-1.2-.9-1.4-1.9-1.4-1.5 0-3.4.9-4.2 2.3-.6 1.1-1.2 1.1-2.2 1 1-3.2 4.7-5.4 7.8-4.5 1.7.4 1.8 1.2.5 2.6zM322.2 15c-.5.7-.7 1.2-1.7 1.1-.5 0-3.2.6-3.2 2.9h-.5c-.8-.1-.7-.5-.7-.9-.1-.9 1.4-2.5 2.6-2.9 1.1-.4 2.4-.3 3.5-.2zM313.1 12.7c-.9-1.3-1-2.3-1-3.1 0-.5.5-.9.8-.7.2.1.4.2.2.5-.6 1-.2 2.1 0 3.3z"/></svg>