<svg xmlns="http://www.w3.org/2000/svg" xmlns:xlink="http://www.w3.org/1999/xlink" width="244.307" height="47.349" viewBox="0 0 244.307 47.349">
  <defs>
    <linearGradient id="linear-gradient" x1="0.671" x2="0.578" y2="1.109" gradientUnits="objectBoundingBox">
      <stop offset="0" stop-color="#aa3357"/>
      <stop offset="0.553" stop-color="#2d3e55"/>
      <stop offset="1" stop-color="#2d2b2b"/>
    </linearGradient>
    <linearGradient id="linear-gradient-2" x1="1.089" y1="0.117" x2="0.578" y2="1.109" gradientUnits="objectBoundingBox">
      <stop offset="0" stop-color="#aa3357"/>
      <stop offset="0.738" stop-color="#2d3e55"/>
      <stop offset="1" stop-color="#2d2b2b"/>
    </linearGradient>
    <linearGradient id="linear-gradient-3" x1="0.296" y1="0.218" x2="0.578" y2="1.109" gradientUnits="objectBoundingBox">
      <stop offset="0" stop-color="#aa3357"/>
      <stop offset="0.459" stop-color="#2d3e55"/>
      <stop offset="1" stop-color="#2d2b2b"/>
    </linearGradient>
    <linearGradient id="linear-gradient-4" x1="0.5" x2="0.35" y2="1.045" gradientUnits="objectBoundingBox">
      <stop offset="0" stop-color="#aa3357"/>
      <stop offset="0.469" stop-color="#2d3e55"/>
      <stop offset="1" stop-color="#394b66"/>
    </linearGradient>
    <linearGradient id="linear-gradient-5" x1="0.233" y1="0" x2="0.578" y2="1.109" xlink:href="#linear-gradient-3"/>
  </defs>
  <g id="logo" transform="translate(-47 -65.021)">
    <g id="Layer_1" data-name="Layer 1" transform="translate(47 65.021)">
      <g id="Group_965" data-name="Group 965">
        <g id="Group_963" data-name="Group 963" transform="translate(96.851)">
          <g id="Group_962" data-name="Group 962" transform="translate(0 0)">
            <path id="Path_563" data-name="Path 563" d="M286.939,95.467a17.424,17.424,0,0,0,4.633-.568l-1.423,1.3-2.617.608h-9.546l-1.747-1.852-2.861.175-6.6-1.143a9.253,9.253,0,0,0,1.325-.833,7.542,7.542,0,0,0,3.083-6.387,9.794,9.794,0,0,0-.087-1.325l4.564-2.322.459-1.27.218-.59.051-1.121v-.015l.462-.826.859-1.543a12.928,12.928,0,0,0,2.846,2.031,32.746,32.746,0,0,0,5.321,2.144,16.994,16.994,0,0,1,4.655,2.067,3.322,3.322,0,0,1,1.292,2.813,3.041,3.041,0,0,1-1.292,2.617,6.024,6.024,0,0,1-3.6.939q-6.207,0-6.205-5.193h-6.485a9.292,9.292,0,0,0,1.561,5.343,10.413,10.413,0,0,0,4.535,3.632,16,16,0,0,0,6.595,1.325Z" transform="translate(-266.78 -49.453)" fill="url(#linear-gradient)"/>
            <path id="Path_564" data-name="Path 564" d="M325.641,24.439v4.993l.59,4.313-1.962,2.264a8.067,8.067,0,0,0-2.435-4.819q-2.522-2.457-8.039-4.116a17.379,17.379,0,0,1-4.535-1.94,3.023,3.023,0,0,1-1.539-2.562,3.153,3.153,0,0,1,1.314-2.639,5.949,5.949,0,0,1,3.683-1,5.681,5.681,0,0,1,3.814,1.2,4.225,4.225,0,0,1,1.358,3.348h6.464a9,9,0,0,0-1.452-5.041A9.573,9.573,0,0,0,318.817,15a14.1,14.1,0,0,0-5.991-1.219c-.251,0-.495,0-.739.015l.866-.939.928-3.72,1.1-.171.338-1.354,1.186-.167.335-3.556L319.464,0l4.4,7.272,1.856,1.1-1.183,1.856.087,4.062.335,1.1,1.863,5.921h0l-1.183,3.126Z" transform="translate(-292.82 0)" fill="url(#linear-gradient-2)"/>
          </g>
          <path id="Path_565" data-name="Path 565" d="M354.784,19.183V30.775l-.535-.681-6.9-8.786,0,0-2.2-7.02-.087-4.062,1.183-1.856-1.856-1.1L339.99,0l3.636,1.521,2.282,2.791,1.863,1.354,4.153,7.417v3.69Z" transform="translate(-313.346)" fill="url(#linear-gradient-3)"/>
          <path id="Path_566" data-name="Path 566" d="M341.557,98.94l-.291.335-1.048,1.2-.051.036v3.075l-4.709,4.28-.557.506a11.228,11.228,0,0,0,1.456-.5,10.18,10.18,0,0,0,2.206-1.248,7.548,7.548,0,0,0,3.079-6.387,10.029,10.029,0,0,0-.084-1.3Z" transform="translate(-310.108 -62.931)"/>
          <path id="Path_567" data-name="Path 567" d="M411.505,73.291v.91a6.11,6.11,0,0,1-1.121,3.88,3.841,3.841,0,0,1-3.174,1.358H405.5V67.97h1.747a3.833,3.833,0,0,1,3.174,1.35A5.985,5.985,0,0,1,411.5,73c0,.095,0,.193,0,.291Z" transform="translate(-355.014 -43.233)" fill="url(#linear-gradient-4)"/>
          <path id="Path_568" data-name="Path 568" d="M368.672,81.437l-8.014.983-8.138-1.51c-.178.033-.357.069-.535.106q-3.112.611-6.227,1.234l-8.429-.051h-.9l4.709-4.284V74.842l.051-.036h0l1.048-1.208.291-.335L344.495,71l-.593-4.316V61.693l1.183-3.123,6.9,8.778.535.681,6.464,9.615Z" transform="translate(-311.081 -37.254)" fill="url(#linear-gradient-5)"/>
        </g>
        <g id="Group_964" data-name="Group 964" transform="translate(0 13.684)">
          <path id="Path_569" data-name="Path 569" d="M13.51,50.895a17.413,17.413,0,0,1-4.538-1.94,3.023,3.023,0,0,1-1.539-2.562,3.153,3.153,0,0,1,1.314-2.639,5.953,5.953,0,0,1,3.687-1,5.664,5.664,0,0,1,3.81,1.2A4.225,4.225,0,0,1,17.6,47.3h6.464a9,9,0,0,0-1.452-5.041,9.574,9.574,0,0,0-4.083-3.436A14.1,14.1,0,0,0,12.538,37.6a15.433,15.433,0,0,0-6.02,1.121A9.352,9.352,0,0,0,2.4,41.836,7.558,7.558,0,0,0,.968,46.371q0,4.891,5.343,7.777a32.667,32.667,0,0,0,5.325,2.144,16.96,16.96,0,0,1,4.651,2.067,3.324,3.324,0,0,1,1.3,2.813,3.044,3.044,0,0,1-1.3,2.617,6.016,6.016,0,0,1-3.6.939q-6.207,0-6.205-5.193H0a9.292,9.292,0,0,0,1.561,5.343A10.413,10.413,0,0,0,6.1,68.51a16.015,16.015,0,0,0,6.595,1.325,13.474,13.474,0,0,0,8.294-2.318,7.548,7.548,0,0,0,3.079-6.387,8.188,8.188,0,0,0-2.518-6.118q-2.522-2.457-8.036-4.116Z" transform="translate(0 -37.6)" fill="#42556e"/>
          <path id="Path_570" data-name="Path 570" d="M103.222,38.79,99,61.111,93.851,38.79H88.377L83.205,61.067,78.962,38.79H72.52l6.959,31.368h6.507l5.106-20.985L96.2,70.158h6.507l6.959-31.368Z" transform="translate(-46.127 -38.357)" fill="#42556e"/>
          <path id="Path_571" data-name="Path 571" d="M185.3,38.79V70.158h6.464V38.79Z" transform="translate(-117.993 -38.357)" fill="#42556e"/>
          <path id="Path_572" data-name="Path 572" d="M239.88,59.8a9.794,9.794,0,0,1,.087,1.325,7.542,7.542,0,0,1-3.083,6.387,9.252,9.252,0,0,1-1.325.833,14.719,14.719,0,0,1-6.97,1.485A15.985,15.985,0,0,1,222,68.51a10.445,10.445,0,0,1-4.538-3.632,9.292,9.292,0,0,1-1.561-5.343h6.485q0,5.192,6.205,5.193a6.721,6.721,0,0,0,3.1-.63,3.976,3.976,0,0,0,.5-.309,3.041,3.041,0,0,0,1.292-2.617c0-.1,0-.2-.007-.291a3.248,3.248,0,0,0-1.285-2.522,16.994,16.994,0,0,0-4.655-2.067,32.608,32.608,0,0,1-5.321-2.144q-5.345-2.888-5.343-7.777a7.58,7.58,0,0,1,1.43-4.535,9.394,9.394,0,0,1,4.116-3.115,15.5,15.5,0,0,1,6.023-1.121,14.122,14.122,0,0,1,5.987,1.219,9.531,9.531,0,0,1,4.083,3.436,8.977,8.977,0,0,1,1.456,5.041H233.5a4.225,4.225,0,0,0-1.358-3.348,5.584,5.584,0,0,0-3.814-1.2,5.828,5.828,0,0,0-3.683,1,3.153,3.153,0,0,0-1.314,2.639,3.023,3.023,0,0,0,1.539,2.562,17.324,17.324,0,0,0,4.535,1.94q5.514,1.66,8.036,4.116A8.031,8.031,0,0,1,239.88,59.8Z" transform="translate(-137.491 -37.6)" fill="#42556e"/>
          <path id="Path_573" data-name="Path 573" d="M405.93,45.952a12.982,12.982,0,0,0-5.1-5.3,13.776,13.776,0,0,0-3.581-1.419,16.029,16.029,0,0,0-3.821-.444H383.78v4.84l4.018,3.385.862.728h1.583v-3.72h3.188a9.958,9.958,0,0,1,1.692.138,6.456,6.456,0,0,1,4.105,2.329,10.941,10.941,0,0,1,1.976,6.715l2.06,1.03.062.025q-.437,2.844-.866,5.681.721,1.032,1.445,2.064l1.43,2.042a12.331,12.331,0,0,0,.626-1.063,16.411,16.411,0,0,0,1.8-7.777V53.763a16.374,16.374,0,0,0-1.831-7.81Z" transform="translate(-244.401 -38.357)" fill="#42556e"/>
          <path id="Path_574" data-name="Path 574" d="M469.044,64.968v-8.4h12.41V51.5h-12.41V44.024h14.521V38.79H462.58V70.158h21.029v-5.19Z" transform="translate(-294.578 -38.357)" fill="#42556e"/>
          <path id="Path_575" data-name="Path 575" d="M544.849,38.79l-7.108,23.591L530.673,38.79H523.5l10.878,31.368h6.744L552.048,38.79Z" transform="translate(-333.443 -38.357)" fill="#42556e"/>
          <path id="Path_576" data-name="Path 576" d="M619.946,50.895a17.378,17.378,0,0,1-4.535-1.94,3.023,3.023,0,0,1-1.539-2.562,3.153,3.153,0,0,1,1.314-2.639,5.949,5.949,0,0,1,3.683-1,5.681,5.681,0,0,1,3.814,1.2A4.225,4.225,0,0,1,624.04,47.3H630.5a9,9,0,0,0-1.452-5.041,9.574,9.574,0,0,0-4.083-3.436,14.1,14.1,0,0,0-5.99-1.219,15.464,15.464,0,0,0-6.023,1.121,9.362,9.362,0,0,0-4.113,3.115,7.559,7.559,0,0,0-1.434,4.535q0,4.891,5.343,7.777a32.745,32.745,0,0,0,5.321,2.144,16.993,16.993,0,0,1,4.655,2.067,3.322,3.322,0,0,1,1.292,2.813,3.041,3.041,0,0,1-1.292,2.617,6.024,6.024,0,0,1-3.6.939q-6.207,0-6.205-5.193H606.44A9.292,9.292,0,0,0,608,64.878a10.413,10.413,0,0,0,4.535,3.632,16,16,0,0,0,6.595,1.325,13.474,13.474,0,0,0,8.294-2.318,7.548,7.548,0,0,0,3.079-6.387,8.2,8.2,0,0,0-2.518-6.118q-2.522-2.457-8.039-4.116Z" transform="translate(-386.197 -37.6)" fill="#42556e"/>
        </g>
      </g>
    </g>
  </g>
</svg>
