<svg id="logo" xmlns="http://www.w3.org/2000/svg" xmlns:xlink="http://www.w3.org/1999/xlink" width="66.932" height="85.895" viewBox="0 0 66.932 85.895">
  <defs>
    <linearGradient id="linear-gradient" x1="0.5" x2="0.5" y2="1" gradientUnits="objectBoundingBox">
      <stop offset="0" stop-color="#35d8e3"/>
      <stop offset="1" stop-color="#4d33b2"/>
    </linearGradient>
  </defs>
  <ellipse id="Oval" cx="30.051" cy="30.235" rx="30.051" ry="30.235" transform="translate(6.83 12.369)" fill="#fff"/>
  <path id="Path" d="M27.02,39.364c-.021-2.377-.132-4.928-.359-7.62S26.1,26.5,25.712,24.12L12.022,12.1a137.308,137.308,0,0,1,8.927,14.4A135.8,135.8,0,0,1,27.02,39.364Z" transform="translate(4.369 4.396)" fill="url(#linear-gradient)"/>
  <path id="Path-2" data-name="Path" d="M21.576,0,49.9,32.621l2.4-.462a12.653,12.653,0,0,1,12.591,3.926L62,38.21l-3.414,3.977a38.2,38.2,0,0,1-6.33,6.715,29.725,29.725,0,0,1-8.673,5.437,26.433,26.433,0,0,1-8.573,1.755,6.751,6.751,0,0,0-2.138.353,8.049,8.049,0,0,0-4.446,4.035L16.275,85.9a31.076,31.076,0,0,0,3.61-15.643,29.682,29.682,0,0,0-1.048-6.645,37.8,37.8,0,0,0-4.816,1.3A39.494,39.494,0,0,0,0,73.375L31.158,45.414a98.44,98.44,0,0,0-1.765-21.748A98.525,98.525,0,0,0,21.576,0Z" transform="translate(0 0)" fill="url(#linear-gradient)"/>
</svg>
